<svg xmlns="http://www.w3.org/2000/svg" viewBox="0 0 1200 750" role="img" aria-label="AI Summarizer extension screenshot">
  <defs><linearGradient id="b" x1="0" x2="1"><stop stop-color="#111827"/><stop offset="1" stop-color="#312e81"/></linearGradient><linearGradient id="c" x1="0" x2="1"><stop stop-color="#58d5ff"/><stop offset="1" stop-color="#a78bfa"/></linearGradient></defs>
  <rect width="1200" height="750" fill="url(#b)"/>
  <rect x="95" y="95" width="760" height="560" rx="28" fill="#f8fafc"/>
  <rect x="895" y="140" width="230" height="470" rx="30" fill="#0f172a" stroke="#475569"/>
  <circle cx="160" cy="150" r="12" fill="#ef4444"/><circle cx="200" cy="150" r="12" fill="#f59e0b"/><circle cx="240" cy="150" r="12" fill="#22c55e"/>
  <rect x="150" y="230" width="640" height="20" rx="10" fill="#cbd5e1"/><rect x="150" y="280" width="560" height="20" rx="10" fill="#cbd5e1"/><rect x="150" y="330" width="610" height="20" rx="10" fill="#cbd5e1"/>
  <rect x="150" y="420" width="310" height="120" rx="20" fill="url(#c)"/>
  <text x="190" y="492" fill="#03111f" font-family="Inter,Arial" font-size="30" font-weight="800">Summarize</text>
  <text x="930" y="205" fill="#e2e8f0" font-family="Inter,Arial" font-size="26" font-weight="800">AI Summary</text>
  <g fill="#94a3b8"><rect x="930" y="260" width="155" height="13" rx="7"/><rect x="930" y="300" width="120" height="13" rx="7"/><rect x="930" y="340" width="170" height="13" rx="7"/><rect x="930" y="410" width="120" height="36" rx="18"/></g>
</svg>
