<svg xmlns="http://www.w3.org/2000/svg" viewBox="0 0 1200 750" role="img" aria-label="Home Hunt platform screenshot">
  <defs><linearGradient id="a" x1="0" x2="1" y1="0" y2="1"><stop stop-color="#09202b"/><stop offset="1" stop-color="#193b5a"/></linearGradient></defs>
  <rect width="1200" height="750" fill="url(#a)"/>
  <rect x="75" y="75" width="1050" height="600" rx="34" fill="#f8fafc"/>
  <rect x="125" y="125" width="950" height="82" rx="22" fill="#e2e8f0"/>
  <rect x="145" y="250" width="280" height="330" rx="24" fill="#ffffff" stroke="#cbd5e1"/>
  <rect x="460" y="250" width="280" height="330" rx="24" fill="#ffffff" stroke="#cbd5e1"/>
  <rect x="775" y="250" width="280" height="330" rx="24" fill="#ffffff" stroke="#cbd5e1"/>
  <path d="M190 390h190L285 300Z" fill="#58d5ff"/><path d="M505 390h190L600 300Z" fill="#8b5cf6"/><path d="M820 390h190L915 300Z" fill="#58d5ff"/>
  <rect x="190" y="390" width="190" height="95" fill="#dbeafe"/><rect x="505" y="390" width="190" height="95" fill="#ede9fe"/><rect x="820" y="390" width="190" height="95" fill="#dbeafe"/>
  <text x="150" y="178" fill="#0f172a" font-family="Inter,Arial" font-size="36" font-weight="800">Home Hunt</text>
  <g fill="#64748b"><rect x="190" y="525" width="150" height="14" rx="7"/><rect x="505" y="525" width="150" height="14" rx="7"/><rect x="820" y="525" width="150" height="14" rx="7"/></g>
</svg>
