<svg xmlns="http://www.w3.org/2000/svg" viewBox="0 0 1200 750" role="img" aria-label="Library Management System screenshot">
  <defs><linearGradient id="d" x1="0" x2="1" y1="0" y2="1"><stop stop-color="#0b1220"/><stop offset="1" stop-color="#17314f"/></linearGradient></defs>
  <rect width="1200" height="750" fill="url(#d)"/>
  <rect x="90" y="90" width="1020" height="570" rx="34" fill="#111827" stroke="#334155"/>
  <text x="150" y="165" fill="#e2e8f0" font-family="Inter,Arial" font-size="38" font-weight="800">Library Management</text>
  <rect x="150" y="220" width="260" height="360" rx="22" fill="#1f2937"/>
  <rect x="465" y="220" width="260" height="360" rx="22" fill="#1f2937"/>
  <rect x="780" y="220" width="260" height="360" rx="22" fill="#1f2937"/>
  <g><rect x="190" y="270" width="42" height="245" rx="8" fill="#58d5ff"/><rect x="250" y="250" width="42" height="265" rx="8" fill="#8b5cf6"/><rect x="310" y="300" width="42" height="215" rx="8" fill="#22c55e"/></g>
  <g fill="#64748b"><rect x="505" y="285" width="180" height="18" rx="9"/><rect x="505" y="340" width="140" height="18" rx="9"/><rect x="505" y="395" width="170" height="18" rx="9"/><rect x="820" y="285" width="170" height="18" rx="9"/><rect x="820" y="340" width="130" height="18" rx="9"/><rect x="820" y="395" width="155" height="18" rx="9"/></g>
</svg>
