<svg xmlns="http://www.w3.org/2000/svg" viewBox="0 0 1200 750" role="img" aria-label="Melb-Bank dashboard screenshot">
  <defs>
    <linearGradient id="bg" x1="0" x2="1" y1="0" y2="1"><stop stop-color="#08111f"/><stop offset="1" stop-color="#16264a"/></linearGradient>
    <linearGradient id="card" x1="0" x2="1"><stop stop-color="#58d5ff"/><stop offset="1" stop-color="#8b5cf6"/></linearGradient>
  </defs>
  <rect width="1200" height="750" fill="url(#bg)"/>
  <rect x="70" y="70" width="1060" height="610" rx="34" fill="#0f172a" stroke="#334155"/>
  <rect x="110" y="120" width="230" height="510" rx="24" fill="#111c33"/>
  <rect x="380" y="120" width="700" height="150" rx="24" fill="url(#card)"/>
  <rect x="420" y="330" width="300" height="250" rx="24" fill="#17233d"/>
  <rect x="760" y="330" width="320" height="250" rx="24" fill="#17233d"/>
  <text x="150" y="170" fill="#e2e8f0" font-family="Inter,Arial" font-size="34" font-weight="700">Melb-Bank</text>
  <text x="420" y="190" fill="#03111f" font-family="Inter,Arial" font-size="40" font-weight="800">$42,890.00</text>
  <text x="420" y="230" fill="#03111f" font-family="Inter,Arial" font-size="20">Available balance</text>
  <g fill="#334155"><rect x="150" y="230" width="140" height="18" rx="9"/><rect x="150" y="285" width="120" height="18" rx="9"/><rect x="150" y="340" width="155" height="18" rx="9"/><rect x="150" y="395" width="110" height="18" rx="9"/></g>
  <g fill="#58d5ff"><rect x="450" y="505" width="30" height="45" rx="8"/><rect x="500" y="460" width="30" height="90" rx="8"/><rect x="550" y="420" width="30" height="130" rx="8"/><rect x="600" y="375" width="30" height="175" rx="8"/></g>
  <circle cx="920" cy="450" r="85" fill="none" stroke="#58d5ff" stroke-width="28"/><path d="M920 365a85 85 0 0 1 74 127" fill="none" stroke="#8b5cf6" stroke-width="28"/>
</svg>
